<?xml version="1.0" encoding="UTF-8" standalone="no"?>
<!-- Created with Inkscape (http://www.inkscape.org/) -->

<svg
   width="203.30569mm"
   height="203.30569mm"
   viewBox="0 0 203.30569 203.30569"
   version="1.1"
   id="svg1"
   xml:space="preserve"
   xmlns:xlink="http://www.w3.org/1999/xlink"
   xmlns="http://www.w3.org/2000/svg"
   xmlns:svg="http://www.w3.org/2000/svg"><defs
     id="defs1" /><g
     id="layer3"
     style="display:inline"
     transform="translate(-3.6126974,-33.55535)"><g
       id="g38"
       transform="matrix(0.87812499,0,0,0.87812499,11.558579,17.749161)"><g
         id="g37"><circle
           style="display:inline;fill:#ffffff;stroke-width:0.320719;-inkscape-stroke:none"
           id="path37-1"
           cx="106.71256"
           cy="133.76118"
           r="115.76125" /><circle
           style="display:inline;fill:#000000;stroke-width:0.3122;-inkscape-stroke:none"
           id="path37-0"
           cx="106.44391"
           cy="134.02042"
           r="112.68634" /><circle
           style="display:inline;fill:#ffffff;stroke-width:0.297668;-inkscape-stroke:none"
           id="path37"
           cx="107.07917"
           cy="133.84895"
           r="107.44091" /></g><g
         id="g1"
         transform="translate(-2.532278,-2.8940319)"><path
           style="fill:#000000;stroke-width:0.264583"
           d="m 36.579209,175.22209 46.61931,0.064 -0.03934,-3.10971 c -3.849284,-0.0917 -8.195139,-0.0268 -9.691979,-1.7989 -6.332997,3.28237 -10.473501,1.1878 -14.569553,-0.39921 -5.481844,3.42046 -9.24427,1.58349 -12.981781,0 -4.544194,3.27742 -9.169093,1.66146 -13.813129,0 1.668247,1.58722 3.027706,3.46077 4.476475,5.24387 z"
           id="path27" /><path
           style="fill:#000000;stroke-width:0.264583"
           d="m 37.922154,178.41957 c 0.919592,0.53803 1.699869,1.16894 2.110338,2.04639 h 43.29847 l -0.06395,-2.17429 z"
           id="path28" /><path
           style="display:inline;fill:#000000;stroke-width:0.264583"
           d="m 172.2466,178.13359 c -0.91959,0.53803 -1.69987,1.16894 -2.11034,2.04639 h -43.29847 l 0.0639,-2.17429 z"
           id="path28-6" /><path
           style="display:inline;fill:#000000;stroke-width:0.264583"
           d="m 172.50931,175.49493 -45.66006,0.064 0.0393,-3.10971 c 3.84928,-0.0917 7.23589,-0.0268 8.73273,-1.7989 6.33299,3.28237 10.4735,1.1878 14.56955,-0.39921 5.48184,3.42046 9.24427,1.58349 12.98178,0 4.54419,3.27742 9.16909,1.66146 13.81313,0 -1.66825,1.58722 -3.02771,3.46077 -4.47648,5.24387 z"
           id="path27-6" /><path
           style="display:inline;opacity:1;fill:#000000;stroke-width:1.17722"
           d="m 17.732856,162.45379 c -3.233608,-23.58563 5.882791,-48.47681 73.234981,-61.56569 1.767193,-52.96241 9.418353,-60.592414 26.273273,-55.505468 2.20877,2.837223 2.59328,46.134788 2.27644,55.220918 44.18019,4.60404 63.00373,41.82687 66.8169,51.79049 14.95106,2.95389 16.43074,16.93345 20.71712,29.8215 -5.18635,-2.22805 -12.88275,1.6583 -24.70659,-3.21848 -2.33958,7.4318 -12.89336,15.7786 -15.6018,17.08905 -1.87782,-4.08194 -7.63085,-15.46913 -2.27361,-32.84622 -9.22616,-4.15727 -37.87074,-12.31686 -42.90068,-13.53208 0.75737,11.73074 10.93425,42.83035 4.407,47.75394 -18.19841,-4.97408 -22.78901,-18.15738 -25.35055,-28.5697 l -5.231087,22.48504 c -13.893304,-0.62384 -11.214202,-27.06271 -10.059748,-39.78783 -20.892443,3.63981 -52.814506,27.64761 -58.534688,26.09934 -2.327541,-2.34951 7.481529,-4.04928 -2.495098,-8.79982 -1.952007,0.39748 -5.873279,2.91606 -6.571774,-6.43499 z"
           id="path1" /><ellipse
           style="display:inline;opacity:1;fill:#ffffff;stroke-width:0.790729"
           id="path2"
           cx="106.9422"
           cy="60.738522"
           rx="7.8602185"
           ry="8.3937187" /><ellipse
           style="display:inline;opacity:1;fill:#000000;stroke-width:0.290263"
           id="path2-1"
           cx="106.56782"
           cy="60.853626"
           rx="3.0207939"
           ry="2.9430447" /><path
           style="display:inline;opacity:1;fill:#ffffff;stroke-width:1.18373"
           d="m 93.351471,100.51955 c -1.572492,-1.987997 2.675772,-30.693101 7.134179,-28.541823 1.71447,0.969359 1.48291,26.122322 0.45912,28.041833 -2.632867,0.014 -5.129435,0.23247 -7.593299,0.49999 z"
           id="path3" /><path
           style="display:inline;opacity:1;fill:#ffffff;stroke-width:1.21357"
           d="m 108.45304,74.74694 c 1.60775,0.173568 1.58165,23.940902 0.78484,25.30978 -2.03125,-0.0594 -3.71448,-0.119827 -5.41,-0.137899 -0.56734,-1.559607 -0.66949,-23.214161 4.62516,-25.171855 z"
           id="path4" /><path
           style="display:inline;opacity:1;fill:#ffffff;stroke-width:1.22121"
           d="m 111.23199,100.08357 c -0.30701,-10.511785 1.39353,-23.307198 4.14294,-22.802169 2.39036,8.504837 2.19443,15.648537 1.5034,23.082809 -1.10792,-0.0295 -3.34639,-0.22859 -5.64634,-0.28064 z"
           id="path5" /><path
           style="display:inline;opacity:1;fill:#ffffff;stroke-width:1.17722"
           d="m 120.09056,120.01715 c -11.74205,-18.27333 -27.656409,-8.17312 -31.000385,-0.30508 -3.17498,-9.57278 15.501795,-9.70532 12.579865,-17.70343 -0.42805,-1.17168 7.17327,-1.5147 6.86952,-0.0248 -1.74029,8.53647 12.83661,8.68362 11.551,18.03328 z"
           id="path6" /><path
           style="display:inline;opacity:1;fill:#ffffff;stroke-width:1.17722"
           d="m 127.36113,142.62927 c -5.76019,-0.99994 -7.48725,1.32748 -6.16273,4.24406 8.96268,2.81133 27.21814,7.1871 42.17454,13.45215 -11.89814,-8.58833 -24.92198,-16.01004 -36.01181,-17.69621 z"
           id="path7" /><path
           style="display:inline;opacity:1;fill:#ffffff;stroke-width:0.944173"
           d="m 114.45514,160.89849 c 2.51488,0.98758 4.44343,-2.14345 5.89696,-4.09416 -0.70749,-2.96687 -3.00386,-13.93202 -5.95455,-13.60905 -2.43837,1.02661 -1.99857,9.49087 0.0576,17.70321 z"
           id="path8" /><path
           style="display:inline;opacity:1;fill:#ffffff;stroke-width:1.08592"
           d="m 105.26755,143.16591 c -0.17842,7.76709 -0.3426,11.88844 0.66877,17.09438 1.62611,-0.73854 4.34793,-0.50235 5.65891,0.19925 -1.45684,-9.88653 -2.39516,-13.77854 -3.26252,-17.44082 -0.31055,-1.31126 -3.16927,-1.33193 -3.06516,0.14719 z"
           id="path9" /><path
           style="display:inline;opacity:1;fill:#ffffff;stroke-width:1.17722"
           d="m 124.61874,194.11324 c 1.70707,-2.26985 -0.78356,-25.4672 -3.66805,-35.63664 -1.90766,1.67976 -3.52471,4.84645 -5.92011,4.11949 1.29951,3.38707 7.37639,10.09211 9.58816,31.51715 z"
           id="path10" /><path
           id="path11"
           style="display:inline;opacity:1;fill:#ffffff;stroke-width:1.17522"
           d="m 99.152479,141.50469 c 3.097071,43.36344 11.662431,44.97965 19.490751,50.62186 -0.62161,-0.42212 -1.20636,-0.8714 -1.77501,-1.33359 0.92922,0.66204 5.54408,2.77856 6.03965,2.91236 -9.58248,-6.73652 -9.13019,-18.06614 -11.13153,-31.65393 -0.93609,-0.88479 -5.76703,-1.39272 -5.58017,0.3311 0.20087,6.61069 2.4525,16.18594 4.47583,20.74332 -7.17997,-10.9257 -6.3273,-30.40834 -7.69916,-41.68479 0.069,-1.51719 -3.70235,-1.51464 -3.820361,0.0637 z" /><path
           style="display:inline;opacity:1;fill:#ffffff;stroke-width:1.17722"
           d="m 94.221498,189.34787 c -7.813109,-0.93894 -7.929131,-18.24132 -5.164985,-38.5634 2.428925,-0.54918 6.785513,-1.4253 9.254985,-1.71011 3.675812,18.88371 -2.39431,25.40472 -4.09,40.27351 z"
           id="path13" /><path
           style="display:inline;opacity:1;fill:#ffffff;stroke-width:1.17722"
           d="m 64.66578,135.01985 c -6.922944,-7.68024 -26.243754,0.26807 -17.79476,11.35701 8.328382,8.46082 24.213286,-0.92137 17.79476,-11.35701 z"
           id="path14" /><path
           id="path15"
           style="display:inline;opacity:1;fill:#ffffff;stroke-width:1.17722"
           d="m 67.344754,150.85273 c 0.480379,2.99821 -36.792226,25.09268 -40.264859,25.8656 2.827351,3.02924 41.646809,-27.38362 71.108169,-29.13625 -1.692821,-11.99064 -29.818374,-2.24526 -34.513322,-1.63811 -9.59668,-0.33101 -39.80306,25.14722 -43.320255,15.16574 -4.331408,17.73339 38.270631,-16.93088 46.990267,-10.25698 z" /><path
           style="display:inline;opacity:1;fill:#000000;stroke-width:1.43588"
           d="m 64.99626,137.07095 c -0.56075,0.0442 -5.355858,-1.68384 -10.963075,0.11842 -5.960116,1.9157 -6.873203,6.97918 -7.671227,7.32344 0.752112,0.38158 7.444933,2.08349 11.684794,-0.20533 3.3625,-1.8152 6.214361,-6.91834 6.949508,-7.23653 z"
           id="path17" /><path
           style="display:inline;opacity:1;fill:#ffffff;stroke-width:1.58307"
           d="m 57.229212,138.01871 c -3.321095,-2.74167 -8.494304,4.30813 -3.115448,6.27773 4.064533,1.16559 5.930058,-3.41198 3.115448,-6.27773 z m 1e-6,0 c -3.321095,-2.74167 -8.494304,4.30813 -3.115448,6.27773 4.064533,1.16559 5.930058,-3.41198 3.115448,-6.27773 z"
           id="path17-8-8" /><path
           style="display:inline;opacity:1;fill:#000000;stroke-width:1.4013"
           d="m 93.322005,164.355 c -2.939761,-2.42686 -7.518972,3.81347 -2.757727,5.55691 3.597836,1.03176 5.249157,-3.02021 2.757727,-5.55691 z m 10e-7,0 c -2.939762,-2.42686 -7.518973,3.81347 -2.757727,5.55691 3.597836,1.03176 5.249157,-3.02021 2.757727,-5.55691 z"
           id="path17-8-8-8" /><path
           style="display:inline;opacity:1;fill:#000000;stroke-width:1.08101"
           d="m 46.884341,141.58569 c -0.59328,-2.7416 1.715798,-6.49465 6.149803,-7.61063 3.382546,-0.85134 5.569638,-1.04115 10.489717,1.27062 -13.831678,-2.93352 -16.55096,5.67531 -16.63952,6.34001 z"
           id="path18" /><path
           style="display:inline;opacity:1;fill:#000000;stroke-width:0.96538"
           d="m 48.403828,146.17652 c 4.975277,1.59817 11.433264,1.62141 16.067636,-5.39863 -2.732556,8.99217 -13.503712,8.35749 -16.067636,5.39863 z"
           id="path19" /><path
           style="display:inline;opacity:1;fill:#ffffff;stroke-width:1.43588"
           d="m 141.26326,137.32674 c 0.56075,0.0442 5.35586,-1.68384 10.96308,0.11842 5.96011,1.9157 6.8732,6.97918 7.67122,7.32344 -0.75211,0.38158 -7.44493,2.08349 -11.68479,-0.20533 -3.3625,-1.8152 -6.21436,-6.91834 -6.94951,-7.23653 z"
           id="path17-2" /><path
           style="display:inline;opacity:1;fill:#ffffff;stroke-width:0.698252"
           d="m 160.34508,139.26329 c 1.28908,3.23712 1.31399,7.4414 -4.32267,10.46688 7.22327,-1.78971 6.70283,-8.80125 4.32267,-10.46688 z"
           id="path19-1" /><path
           style="display:inline;opacity:1;fill:#000000;stroke-width:1.17722"
           d="m 90.666083,160.34126 c 1.921228,-0.48053 3.635913,-0.71013 4.225089,1.20716 -1.647273,-5.3219 0.245153,-7.92146 0.905211,-11.8705 -1.650741,2.90083 -3.227085,4.98338 -5.130467,10.66334 z"
           id="path23" /><path
           style="display:inline;opacity:1;fill:#000000;stroke-width:1.58307"
           d="m 152.75163,138.3186 c -3.32109,-2.74167 -8.4943,4.30813 -3.11545,6.27773 4.06454,1.16559 5.93006,-3.41198 3.11545,-6.27773 z m 0,0 c -3.32109,-2.74167 -8.4943,4.30813 -3.11545,6.27773 4.06454,1.16559 5.93006,-3.41198 3.11545,-6.27773 z"
           id="path17-8-8-7" /><path
           style="display:inline;opacity:1;fill:#000000;stroke-width:1.17722"
           d="m 96.400151,149.82879 c 0.546738,4.69408 1.715188,9.79115 -0.402202,12.97714 -2.023063,4.11806 1.716264,1.11941 -2.414356,10.3615 6.067254,-9.58823 5.711079,-12.20601 4.376061,-23.59011 z"
           id="path24" /><path
           style="display:inline;opacity:1;fill:#800000;stroke-width:0.264583"
           d="m 60.224356,153.97607 c -5.614805,5.07459 -20.2097,13.50056 -34.109576,21.99528 0.209584,7.10995 -0.621185,11.13867 -4.228666,10.965 -1.658663,0.33857 -9.295663,-8.00905 -0.973981,-15.49147 5.530083,-4.08835 31.517893,-15.31886 39.312223,-17.46881 z"
           id="path35" /><path
           style="display:inline;opacity:1;fill:#000000;stroke-width:1.17722"
           d="m 89.194423,173.48471 c 0.698954,0.78347 1.577396,2.77295 3.41437,1.28037 -1.533355,2.47907 -1.755519,3.84894 -0.569057,9.53185 -1.481493,-1.44724 -3.229549,-5.63357 -2.845313,-10.81222 z"
           id="path25" /><path
           style="display:inline;opacity:1;fill:#ffffff;stroke-width:0.264583"
           d="m 24.620622,168.25158 4.604377,-2.11034 -0.383699,4.54042 z"
           id="path16" /><path
           style="display:inline;opacity:1;fill:#ffffff;stroke-width:0.264583"
           d="m 33.746971,163.84519 4.028829,-2.04639 0.127899,4.25266 z"
           id="path21" /><path
           style="display:inline;opacity:1;fill:#ffffff;stroke-width:0.264583"
           d="m 37.925642,161.72937 3.900929,-1.82256 -0.223821,4.06081 z"
           id="path26" /><path
           style="display:inline;opacity:1;fill:#ffffff"
           d="m 166.16843,601.59015 15.10622,-6.40505 -1.45019,15.95217 z"
           id="path29"
           transform="matrix(0.26458333,0,0,0.26458333,-1.9670371,0.65567904)" /><path
           style="display:inline;opacity:1;fill:#ffffff;stroke-width:0.264583"
           d="m 46.149877,158.06457 3.421308,-1.27899 -0.191848,3.35735 z"
           id="path31" /><path
           style="display:inline;opacity:1;fill:#ffffff;stroke-width:0.264583"
           d="m 29.348354,166.05307 4.252652,-2.14231 -0.415673,4.38055 z"
           id="path32" /><path
           style="display:inline;opacity:1;fill:#ffffff;stroke-width:0.264583"
           d="m 55.63621,154.47042 2.046391,-0.6395 -0.575549,2.01442 z"
           id="path36" /><path
           style="display:inline;opacity:1;fill:#ffffff;stroke-width:0.264583"
           d="m 76.660916,112.36411 c -10.407981,12.08057 7.745307,13.72565 1.151094,26.73096 4.573079,-13.38233 -17.531024,-14.60363 -1.151094,-26.73096 z"
           id="path46" /><path
           style="display:inline;opacity:1;fill:#ffffff;stroke-width:0.214136"
           d="m 82.141329,114.13539 c -8.42354,9.77723 6.268546,11.10866 0.93162,21.6343 3.701153,-10.83078 -14.188467,-11.81923 -0.93162,-21.6343 z"
           id="path46-0" /><path
           style="display:inline;opacity:1;fill:#ffffff;stroke-width:0.16603"
           d="m 87.548148,115.41438 c -6.531181,7.58076 4.860309,8.61309 0.72233,16.77413 2.869684,-8.39763 -11.001008,-9.16402 -0.72233,-16.77413 z"
           id="path46-0-3" /><path
           style="display:inline;opacity:1;fill:#ffffff;stroke-width:0.264583"
           d="m 133.02956,112.08435 c 9.86692,12.52637 -8.34112,13.37194 -2.32492,26.65452 -3.98045,-13.5704 18.15597,-13.81894 2.32492,-26.65452 z"
           id="path46-5" /><path
           style="display:inline;opacity:1;fill:#ffffff;stroke-width:0.214136"
           d="m 127.47658,113.61304 c 7.98565,10.13801 -6.75076,10.82238 -1.88164,21.57244 -3.22151,-10.98301 14.69427,-11.18417 1.88164,-21.57244 z"
           id="path46-0-9" /><path
           style="display:inline;opacity:1;fill:#ffffff;stroke-width:0.16603"
           d="m 122.01877,114.65313 c 6.19166,7.86051 -5.23419,8.39114 -1.45892,16.72616 -2.4978,-8.51565 11.39317,-8.67161 1.45892,-16.72616 z"
           id="path46-0-3-2" /><path
           style="display:inline;opacity:1;fill:#ffffff;stroke-width:1.25709"
           d="m 87.416918,103.9807 c -2.071534,-2.88707 -7.031116,1.64507 -3.297856,4.35024 2.870438,1.78675 4.970474,-1.47099 3.297856,-4.35024 z m 0,0 c -2.071533,-2.88707 -7.031116,1.64507 -3.297856,4.35024 2.870438,1.78675 4.970474,-1.47099 3.297856,-4.35024 z"
           id="path17-8-8-1-5" /><path
           style="display:inline;opacity:1;fill:#000000;stroke-width:1.25709"
           d="m 87.704543,105.30787 c -2.071533,-2.88707 -7.031115,1.64507 -3.297856,4.35023 2.870438,1.78676 4.970475,-1.47099 3.297856,-4.35023 z m 0,0 c -2.071532,-2.88707 -7.031115,1.64507 -3.297856,4.35023 2.870439,1.78676 4.970475,-1.47099 3.297856,-4.35023 z"
           id="path17-8-8-1-5-2" /><path
           style="display:inline;opacity:1;fill:#ffffff;stroke-width:0.264583"
           d="m 166.859,163.96498 c 2.88261,7.79233 9.72432,10.25244 14.65104,10.03866 -7.85175,2.32127 -16.36612,8.30736 -12.9327,16.82156 -3.36776,-6.32495 -3.44764,-16.79743 -1.71834,-26.86022 z m 0,0 c 2.88261,7.79233 9.72432,10.25244 14.65104,10.03866 -3.38371,2.72191 -11.93628,5.88595 -12.9327,16.82156 -3.36776,-6.32495 -3.44764,-16.79743 -1.71834,-26.86022 z"
           id="path20" /><path
           style="display:inline;opacity:1;fill:#ffffff;stroke-width:0.264583"
           d="m 189.77417,156.47791 c 2.14421,8.02697 -2.02247,13.98516 -6.16889,16.65451 5.36139,-0.34287 14.38673,0.97827 20.27061,6.27071 -0.90101,-7.10879 -6.88095,-15.70644 -14.10172,-22.92522 z"
           id="path20-1" /><path
           style="display:inline;fill:#ffffff;stroke-width:0.264583"
           d="m 49.785917,156.72214 2.803594,-1.08526 -0.406974,2.84881 z"
           id="path33" /><path
           style="display:inline;fill:#ffffff;stroke-width:0.264583"
           d="m 52.710512,155.55788 2.803591,-1.04004 -0.452191,2.62271 z"
           id="path34" /><path
           style="display:inline;fill:#ffffff;stroke-width:0.277986"
           d="m 50.003544,117.34366 c -8.195668,3.91223 -0.643107,15.72352 3.09341,13.62324 -5.788228,-1.86677 -5.952232,-11.03802 -3.09341,-13.62324 z"
           id="path39-7" /><path
           style="display:inline;fill:#ffffff;stroke-width:0.268987"
           d="m 45.868759,119.23565 c -6.79332,2.59554 -1.990709,14.55889 3.094742,12.7861 -4.114566,-1.00408 -5.88973,-9.52818 -3.094742,-12.7861 z"
           id="path39-3" /><path
           style="display:inline;fill:#ffffff;stroke-width:0.26377"
           d="m 41.648298,121.08508 c -17.87019,10.01956 1.12166,29.60793 6.812504,28.88997 -8.417623,-3.77054 -8.259764,-14.08557 -3.67464,-16.61271 -4.863794,-2.0672 -5.158062,-9.85641 -3.137864,-12.27726 z"
           id="path40" /><path
           style="display:inline;fill:#ffffff;stroke-width:0.440576"
           d="m 73.38015,112.02859 c -10.378735,3.45367 -8.282179,14.48339 -2.049083,15.80286 -4.343719,-5.70106 -5.338075,-10.17937 2.049083,-15.80286 z"
           id="path43" /><path
           style="display:inline;fill:#ffffff;stroke-width:0.314956"
           d="m 70.448354,111.00051 c -9.555737,-0.36634 -22.892693,9.42369 -20.122357,14.50205 14.997296,-4.90587 11.615775,-10.18835 20.122357,-14.50205 z"
           id="path44" /><path
           style="display:inline;fill:#ffffff;stroke-width:0.314956"
           d="m 70.779269,129.45212 c -4.450072,0.64737 -17.74802,1.77633 -20.392085,-3.80022 13.941096,-4.64801 13.36536,2.91389 20.392085,3.80022 z"
           id="path45" /><path
           style="display:inline;fill:#ffffff;stroke-width:0.264583"
           d="m 64.203017,131.77248 c 7.722751,2.21082 6.784737,8.70895 2.540587,11.48208 2.994368,-5.27564 2.088335,-8.01082 -2.540587,-11.48208 z"
           id="path47" /><path
           style="display:inline;fill:#ffffff;stroke-width:0.218294"
           d="m 68.039998,131.7405 c 6.44069,1.80448 5.658397,7.1083 2.118822,9.37174 2.49727,-4.30601 1.741648,-6.53848 -2.118822,-9.37174 z"
           id="path47-2" /><path
           style="display:inline;fill:#ffffff;stroke-width:0.176586"
           d="m 71.269457,131.67655 c 5.210114,1.45971 4.577288,5.75017 1.713994,7.58115 2.020135,-3.48329 1.408884,-5.28922 -1.713994,-7.58115 z"
           id="path47-2-7" /><path
           style="display:inline;fill:#ffffff;stroke-width:0.148536"
           d="m 87.43788,102.53055 c 4.43824,1.00792 4.086441,4.63888 1.757715,6.29713 1.551122,-3.01101 0.961907,-4.50256 -1.757715,-6.29713 z"
           id="path47-2-7-9" /><path
           style="display:inline;fill:#ffffff;stroke-width:0.152019"
           d="m 82.283871,103.73551 c -3.625941,2.92392 -1.66844,6.10312 1.218384,6.5793 -2.780885,-2.06959 -2.910565,-3.70578 -1.218384,-6.5793 z"
           id="path47-2-7-76" /><path
           style="display:inline;fill:#ffffff;stroke-width:0.257239"
           d="m 160.17772,122.04455 c 6.76733,4.98265 -2.15337,14.40212 -5.18356,11.84269 5.58562,-0.68873 7.33161,-8.99535 5.18356,-11.84269 z"
           id="path39-7-4" /><path
           style="display:inline;fill:#ffffff;stroke-width:0.248912"
           d="m 163.60613,124.48403 c 5.72208,3.54181 -0.72583,13.57831 -5.03899,11.08163 3.9143,-0.1961 7.01191,-7.63403 5.03899,-11.08163 z"
           id="path39-3-5" /><path
           style="display:inline;fill:#ffffff;stroke-width:0.244084"
           d="m 167.11982,126.89975 c 14.49646,12.21781 -6.17488,26.71352 -11.22193,25.07009 8.30681,-1.96109 9.95944,-11.36328 6.23234,-14.45843 4.78036,-1.03184 6.40409,-8.05973 4.98959,-10.61166 z"
           id="path40-3" /><path
           style="display:inline;fill:#ffffff;stroke-width:0.407695"
           d="m 139.85765,113.14357 c 8.83122,4.94602 5.00525,14.60519 -0.88939,14.71904 4.94044,-4.425 6.62393,-8.32192 0.88939,-14.71904 z"
           id="path43-8" /><path
           style="display:inline;fill:#ffffff;stroke-width:0.29145"
           d="m 142.70119,112.7197 c 8.74841,1.33095 19.16487,12.5508 15.76281,16.68382 -12.77589,-7.07005 -8.78283,-11.28216 -15.76281,-16.68382 z"
           id="path44-4" /><path
           style="display:inline;fill:#ffffff;stroke-width:0.29145"
           d="m 139.18756,129.43161 c 3.93167,1.36323 15.82078,4.70477 19.19482,0.097 -11.86086,-6.65178 -12.65433,0.32102 -19.19482,-0.097 z"
           id="path45-9" /><path
           style="display:inline;fill:#ffffff;stroke-width:0.244837"
           d="m 144.76028,132.68553 c -7.4037,0.66456 -7.68268,6.73364 -4.3083,9.99298 -1.80278,-5.3161 -0.50308,-7.64417 4.3083,-9.99298 z"
           id="path47-1" /><path
           style="display:inline;fill:#ffffff;stroke-width:0.202002"
           d="m 141.27866,131.98836 c -6.16776,0.51849 -6.38031,5.47503 -3.55753,8.14845 -1.51982,-4.3483 -0.44436,-6.24568 3.55753,-8.14845 z"
           id="path47-2-0" /><path
           style="display:inline;fill:#ffffff;stroke-width:0.163407"
           d="m 138.35473,131.36791 c -4.98932,0.41943 -5.16127,4.42895 -2.87781,6.5916 -1.22945,-3.51752 -0.35947,-5.05238 2.87781,-6.5916 z"
           id="path47-2-7-7" /><path
           style="display:inline;fill:#ffffff;stroke-width:0.264583"
           d="m 166.98728,161.78715 c -2.18537,-13.18132 12.40709,-17.3557 17.73927,-10.06847 -8.98358,-4.15563 -16.75563,1.09462 -17.73927,10.06847 z"
           id="path22" /><path
           style="display:inline;fill:#ffffff;stroke-width:4.69499"
           d="m 115.48942,117.65168 c -7.55882,-13.09227 -32.813497,-2.40691 -19.919038,12.87848 8.566608,9.0069 24.985558,0.28488 19.919038,-12.87848 z"
           id="path17-8" /><path
           style="display:inline;fill:#800000;stroke-width:0.609649"
           d="m 97.295352,123.19017 c -1.13889,-1.55404 -4.14067,0.4408 -2.30189,2.16109 1.20467,0.9913 3.130048,-0.54001 2.30189,-2.16109 z"
           id="path17-8-5-9-8" /><path
           style="display:inline;fill:#800000;stroke-width:0.609649"
           d="m 113.79545,123.53597 c -1.13889,-1.55404 -4.14067,0.4408 -2.30189,2.16109 1.20468,0.9913 3.13006,-0.54001 2.30189,-2.16109 z"
           id="path17-8-5-9-8-0" /><path
           style="display:inline;fill:#000000;stroke-width:1.45786"
           d="m 106.39036,126.04108 c -3.2284,-2.39188 -8.25723,3.75851 -3.0285,5.47682 3.95109,1.01689 5.76455,-2.97668 3.0285,-5.47682 z m 0,0 c -3.2284,-2.39188 -8.25723,3.75851 -3.0285,5.47682 3.9511,1.01689 5.76455,-2.97668 3.0285,-5.47682 z"
           id="path17-8-8-8-8" /><path
           style="display:inline;fill:#000000;stroke-width:0.219501"
           d="m 101.8989,132.01883 c -4.291323,-1.00939 -5.871606,-4.096 -0.009,-6.64173 -3.07361,2.43241 -2.340965,4.85749 0.009,6.64173 z"
           id="path52-1" /><path
           style="display:inline;fill:#000000;stroke-width:0.219501"
           d="m 102.50156,118.7011 c -1.25873,4.2249 -4.43252,5.62189 -6.630892,-0.37959 2.248422,3.21064 4.712212,2.62114 6.630892,0.37959 z"
           id="path52-1-6" /><path
           style="display:inline;fill:#000000;stroke-width:0.219501"
           d="m 106.59786,118.71569 c 1.25873,4.2249 4.43251,5.62189 6.63088,-0.37959 -2.24842,3.21064 -4.7122,2.62114 -6.63088,0.37959 z"
           id="path52-1-6-1" /><path
           style="display:inline;fill:#000000;stroke-width:0.219501"
           d="m 106.79549,132.05461 c 4.2913,-1.00939 5.8716,-4.096 0.009,-6.64173 3.0736,2.43241 2.34096,4.85749 -0.009,6.64173 z"
           id="path52-1-2" /><path
           style="display:inline;fill:#000000;stroke-width:0.199613"
           d="m 94.201967,117.9 c 1.911443,-1.02956 3.379856,-2.15538 4.774563,-2.06938 1.47995,0.0913 1.69128,0.81711 3.6167,1.84554 -2.50199,-0.90811 -4.13227,-1.94438 -6.663765,-0.30797 -0.536267,0.34554 -1.060774,0.38372 -1.727498,0.53181 z"
           id="path52-2" /><path
           style="display:inline;fill:#000000;stroke-width:0.185628"
           d="m 96.614404,114.22705 c 4.695106,-2.10374 8.321566,0.13692 7.611526,4.57621 -0.80422,-5.70599 -6.31848,-4.43943 -7.611526,-4.57621 z"
           id="path52-2-3-2" /><path
           style="display:inline;fill:#000000;stroke-width:0.199613"
           d="m 114.62682,117.88745 c -1.91144,-1.02956 -3.37985,-2.15538 -4.77455,-2.06938 -1.47995,0.0913 -1.69128,0.81711 -3.6167,1.84554 2.50199,-0.90811 4.13226,-1.94438 6.66375,-0.30797 0.53627,0.34554 1.06078,0.38372 1.7275,0.53181 z"
           id="path52-2-2" /><path
           style="display:inline;fill:#000000;stroke-width:0.185628"
           d="m 112.21439,114.2145 c -4.6951,-2.10374 -8.32156,0.13692 -7.61152,4.57621 0.80422,-5.70599 6.31847,-4.43943 7.61152,-4.57621 z"
           id="path52-2-3-2-4" /><path
           style="display:inline;fill:#000000;stroke-width:0.557289"
           d="m 104.1635,120.34607 c 1.1536,3.58318 1.89787,4.20205 2.84284,4.9347 -2.03857,-1.04621 -3.84589,-1.06782 -5.3195,0.38941 1.98158,-1.59657 2.21744,-3.13842 2.47666,-5.32411 z"
           id="path51-7" /><text
           xml:space="preserve"
           style="font-style:normal;font-variant:normal;font-weight:normal;font-stretch:normal;font-size:14.1111px;line-height:0;font-family:'Times New Roman';-inkscape-font-specification:'Times New Roman, ';letter-spacing:0px;white-space:pre;display:inline;fill:#000000;stroke-width:0.264583"
           id="text29"
           transform="translate(-0.51159735,2.3021881)"><textPath
             xlink:href="#path30"
             id="textPath30"><tspan
               id="tspan29"
               style="font-size:14.1111px;letter-spacing:0px;stroke-width:0.264583">TRIBE OF INDIANS</tspan></textPath></text><path
           style="fill:none;stroke-width:0.264583"
           d="m 50.392337,188.01202 c 33.683969,32.4298 70.941533,29.52067 110.760823,1.279"
           id="path30" /><text
           xml:space="preserve"
           style="font-size:21.1667px;line-height:0;font-family:'Times New Roman';-inkscape-font-specification:'Times New Roman, ';letter-spacing:5.29167px;display:inline;fill:#000000;stroke-width:0.264583"
           id="text12"
           transform="rotate(2.9768722,135.78412,131.57929)"><textPath
             xlink:href="#path12"
             id="textPath12"
             style="font-size:21.1667px;letter-spacing:5.29167px">SNOH  MISH</textPath></text><path
           style="fill:none;stroke-width:0.264583"
           d="M 35.090133,117.20828 C 63.205026,54.376631 140.94713,52.867518 174.72716,114.676"
           id="path12" /><path
           style="display:inline;fill:#ffffff;stroke-width:0.248733"
           d="M 30.494533,173.37597 34.653548,171.0576 30.9976,168.8252 Z"
           id="path16-9" /><path
           style="display:inline;fill:#ffffff;stroke-width:0.248733"
           d="m 38.907578,168.9049 3.790665,-1.91752 -3.153438,-2.46039 z"
           id="path21-0" /><path
           style="display:inline;fill:#ffffff;stroke-width:0.248733"
           d="m 42.834162,166.91235 3.54987,-1.94494 -3.203439,-2.08709 z"
           id="path26-8" /><path
           style="display:inline;fill:#ffffff;stroke-width:0.248733"
           d="m 46.540464,164.88184 3.506209,-2.08875 -3.413507,-2.0547 z"
           id="path29-2" /><path
           style="display:inline;fill:#ffffff;stroke-width:0.248733"
           d="m 50.183558,162.71315 2.871165,-1.88335 -2.65228,-1.72039 z"
           id="path31-6" /><path
           style="display:inline;fill:#ffffff;stroke-width:0.248733"
           d="m 34.788957,171.01307 3.987783,-2.03393 -3.552497,-2.1193 z"
           id="path32-2" /><path
           style="display:inline;fill:#ffffff;stroke-width:0.248733"
           d="m 53.222163,160.70224 2.380978,-1.52266 -2.386243,-1.27464 z"
           id="path33-7" /><path
           style="display:inline;fill:#ffffff;stroke-width:0.248733"
           d="m 55.730288,159.13175 2.346689,-1.5478 -2.239937,-1.11469 z"
           id="path34-0" /></g></g></g></svg>
