<svg class="bg-svg" width="1601" height="1211" viewBox="0 0 1601 1211" fill="none" xmlns="http://www.w3.org/2000/svg">
<path fill-rule="evenodd" clip-rule="evenodd" d="M1316.47 693.805C1323.44 692.044 1330.4 690.282 1337.39 688.611L1337.32 688.685L1388.07 667.182C1394.65 663.048 1401.36 659.083 1408.06 655.119C1422.4 646.64 1436.73 638.167 1449.81 628.061C1570.3 535.001 1620.26 413.637 1594.3 262.747C1592.91 254.566 1590.79 246.495 1588.67 238.435C1587.7 234.717 1586.72 231.001 1585.82 227.279L1567.03 182.938C1561.49 173.895 1556.15 164.669 1550.31 155.803C1489.98 64.4178 1407.55 7.2244 1296.24 0.950479C1166.02 -6.37472 1054.21 39.1546 959.963 128.498C948.076 139.753 937.042 151.936 925.834 164.31C920.529 170.167 915.186 176.067 909.695 181.931C910.883 182.455 911.627 182.812 912.104 183.041C912.729 183.341 912.898 183.422 913.012 183.373C914.708 182.82 916.384 182.259 918.053 181.676C919.258 181.255 920.459 180.823 921.661 180.373C981.148 158.44 1041.98 153.452 1102.99 171.074C1208.35 201.511 1279.8 267.061 1300.86 377.362C1326.13 509.8 1246.96 645.249 1118.66 695.107C1116.33 696.033 1114.03 697.024 1111.13 698.272C1109.47 698.985 1107.62 699.783 1105.46 700.7C1107.76 701.217 1109.66 701.668 1111.32 702.06C1113.93 702.68 1115.94 703.156 1117.95 703.522C1168.4 712.902 1219.02 713.852 1269.54 704.593C1285.31 701.686 1300.88 697.747 1316.47 693.805ZM389.535 566.364C414.221 542.038 443.821 524.604 477.415 509.086L477.375 509.103C474.821 508.488 473.441 508.085 472.488 507.848C471.921 507.707 471.505 507.624 471.084 507.591C343.24 496.331 227.975 527.416 127.019 608.516C-26.1176 731.528 -24.5326 918.135 47.3956 1038.8C110.469 1144.51 207.186 1202.76 328.687 1209.59C491.184 1218.7 617.446 1148.58 708.868 1014.72C709.56 1013.73 710.687 1013.07 711.824 1012.39C712.387 1012.06 712.952 1011.73 713.469 1011.35C712.174 1010.76 710.839 1010.19 709.544 1009.59C707.491 1010.46 705.381 1011.31 703.345 1012.22C616.868 1051.86 530.364 1051.43 445.373 1009.52C372.068 973.347 321.163 916.189 303.569 835.228C280.701 730.054 313.87 640.926 389.535 566.364Z" fill="#f0edd7"/>
</svg>